<?xml version="1.0" encoding="UTF-8"?><svg id="Layer_2" xmlns="http://www.w3.org/2000/svg" viewBox="0 0 187.84 98.57"><defs><style>.cls-1{fill:#f9c319;}.cls-2{fill:#010101;}.cls-3{fill:#1d1d1b;}</style></defs><g id="Typo"><path class="cls-2" d="m66.59,87.39c-.39-1.66-.81-3.39-1.25-5.2s-.92-3.56-1.44-5.23c-.16.03-.42.07-.78.11s-.73.04-1.11,0-.73-.14-1.04-.27-.49-.33-.55-.61c-.08-.44-.06-.91.08-1.4s.32-.99.56-1.46.5-.92.77-1.32l.7-1.03-1.69-9.07c-.1-.52.09-.95.56-1.31s.92-.57,1.36-.66c1.11-.21,1.88-.08,2.29.38s.7,1.01.87,1.66.29,1.27.38,1.87.37.94.84,1.02c.65-.49,1.26-1,1.82-1.51s1.12-.99,1.68-1.43,1.15-.81,1.77-1.13,1.31-.55,2.06-.69c.36-.07.75-.1,1.19-.1s.84.06,1.24.17.73.3,1.03.55.49.62.58,1.1c.16.88.19,1.7.09,2.48s-.27,1.55-.49,2.32-.48,1.52-.75,2.27-.5,1.51-.68,2.29c.16-.03.46-.06.91-.08s.92-.06,1.4-.11.95-.08,1.4-.11.75-.05.91-.08c.66,0,1.44.06,2.35.18s1.77.35,2.6.69,1.56.79,2.2,1.35,1.04,1.26,1.19,2.09c.17.92.17,1.86,0,2.84s-.42,1.87-.77,2.68c-.11.27-.29.65-.53,1.15l-.71,1.49c-.24.5-.45.94-.65,1.33s-.31.6-.34.65l-9.56,11.98c-.34.39-.64.66-.9.82s-.59.26-.99.34c-.28.05-.69.1-1.24.14s-1.11.05-1.69.04-1.1-.08-1.55-.2-.73-.34-.83-.65l-3.19-9.84-.09-.48Zm6.62-22.11c-.07.05-.2.16-.37.32s-.35.33-.52.53-.34.37-.52.53-.3.26-.37.32c-.72.79-1.29,1.43-1.71,1.92s-.81.94-1.17,1.36-.53.64-.52.68l.86,4.6.24-.04c.37-.65.69-1.19.96-1.63s.52-.89.77-1.35.44-.82.6-1.1c.08-.22.25-.58.51-1.08s.41-.82.47-.95c.07-.26.18-.59.31-.98s.26-.78.37-1.15.27-.84.45-1.41l-.11-.6-.24.04Zm.51,27.89h.06c.2-.05.49-.16.86-.36s.61-.36.71-.5c.14-.15.36-.42.68-.81s.66-.8,1.03-1.24.72-.85,1.03-1.24.57-.66.74-.82c.57-.68,1.25-1.51,2.04-2.48s1.51-1.98,2.18-3.03,1.2-2.11,1.6-3.17.51-2.05.34-2.97c-.11-.6-.4-1.03-.86-1.29s-1-.44-1.61-.53-1.24-.11-1.86-.05-1.16.12-1.6.21c-.84.16-1.59.44-2.25.85s-1.27.9-1.83,1.45-1.07,1.16-1.55,1.8-.97,1.28-1.47,1.91c-.1.14-.24.29-.44.45s-.38.34-.55.53-.31.39-.42.57-.13.37-.05.57l3.19,10.15Z"/><path class="cls-2" d="m98.75,92.57c-.69-1.52-1.27-2.96-1.74-4.34s-.88-2.85-1.26-4.43c-.21-.91-.36-1.69-.44-2.36s-.3-1.38-.65-2.13c-.07-.15-.18-.25-.34-.31s-.31-.13-.47-.22-.32-.22-.47-.38-.27-.43-.34-.83c-.06-.32-.04-.61.05-.87s.19-.52.29-.76.19-.51.28-.79.1-.61.04-.96l-.17-.9c-.07-.4-.24-1.07-.5-2.01s-.53-1.94-.81-3-.54-2.06-.78-3.01-.41-1.59-.52-1.94c-.17-.67-.46-1.23-.87-1.69s-.69-1.03-.81-1.7c-.24-1.27-.15-2.22.28-2.83s1.29-1.04,2.6-1.29c.28-.05.53.02.75.23s.45.29.69.24l.24-.04c.11-.06.28-.15.51-.25s.38-.16.46-.18c3.08-2.06,5.47-3.66,7.2-4.8s3.03-1.99,3.92-2.52,1.5-.86,1.83-.96.63-.12.89-.04c.49,0,.85.08,1.07.26s.37.5.45.93c.07.4.09.81.04,1.23s-.27.77-.67,1.05l-7.31,5.5-6.04,4.03c-.22.12-.33.35-.31.67s.05.59.09.79c.06.32.21.89.44,1.71s.48,1.67.72,2.55.48,1.66.71,2.34.36,1.01.4,1.01h.06s.05-.08.05-.08c.38-.4.97-1.08,1.78-2.03s1.64-1.92,2.49-2.9,1.59-1.85,2.23-2.61.98-1.14,1.02-1.15c.44-.08.88.06,1.32.43s.7.8.79,1.27.09,1.03,0,1.67-.32,1.15-.7,1.55l-7.77,10.03c.07.4.12.72.15.96s.06.49.11.75l.12.63c.27,1.43.63,2.84,1.09,4.21.46,1.38.83,2.78,1.09,4.21l.24-.04s.19-.2.45-.58.45-.68.57-.91c.06-.13.2-.43.42-.88s.61-1.2,1.15-2.25,1.27-2.44,2.19-4.18,2.09-3.93,3.53-6.59c.13-.19.31-.47.55-.84s.4-.57.48-.58c.1-.14.34-.24.72-.29s.66-.05.83,0c.21.04.51.21.9.51s.61.61.67.93c.09.48-.04,1.15-.4,2.02s-.79,1.78-1.31,2.75-1.05,1.89-1.58,2.8-.93,1.63-1.2,2.17c-.39.98-.86,2.17-1.4,3.57s-1.17,2.75-1.87,4.05-1.53,2.47-2.47,3.49-2.03,1.64-3.26,1.87c-.6.11-1.04.09-1.34-.06s-.69-.45-1.19-.89Z"/><path class="cls-2" d="m146.68,70.66c-.34-.47-.6-.86-.8-1.15s-.34-.66-.42-1.1c-.07-.36-.08-.7-.03-1.01s.03-.65-.03-1.01c-.16-.88-.35-1.69-.55-2.43s-.43-1.57-.68-2.47c-.06-.11-.22-.19-.47-.22s-.53-.1-.84-.18-.59-.25-.86-.49-.45-.62-.55-1.13c-.09-.48-.06-.91.1-1.28s.33-.74.51-1.08.35-.7.51-1.08.19-.81.1-1.28c-.04-.2-.13-.56-.27-1.09s-.28-1.09-.41-1.68-.26-1.16-.38-1.69-.2-.9-.24-1.1l-.02-.12-.02-.12c.09-.39.17-.71.22-.97s.13-.46.23-.6.24-.26.43-.36.44-.17.76-.23c.84-.16,1.48-.11,1.94.13s.8.56,1.04.95.41.76.52,1.11.24.53.41.54l3.6-4.56.24-.04c1.22-1.18,2.56-2.16,4.02-2.94s3.04-1.34,4.76-1.66c.52-.1,1.16-.15,1.91-.17s1.49.06,2.21.24,1.34.46,1.89.85.89.95,1.02,1.66c.15.8.2,1.63.16,2.5s-.16,1.75-.34,2.63-.44,1.73-.76,2.55-.69,1.54-1.11,2.15c-.12.47-1.18,1.83-3.2,4.06s-5.02,5.55-9.01,9.96l28.99-3.55c.41-.03.96-.11,1.66-.22s1.39-.17,2.07-.17,1.29.12,1.83.37.87.71,1,1.39c.07.36.07.66.01.89s-.14.44-.26.6-.25.32-.41.48-.3.34-.42.57l-1.01.19-1.01.19c-.81.07-1.66.12-2.53.16s-1.9.09-3.06.14-2.52.14-4.06.26-3.38.32-5.51.6c-2.13.27-4.61.63-7.43,1.08s-6.08,1.01-9.78,1.7c-.04,0-.08.08-.12.21s-.05.24-.03.32c.28,1.51.69,2.97,1.22,4.37s.93,2.82,1.2,4.26c.05.28.08.59.08.94s-.05.69-.15,1.02-.26.61-.46.86-.48.4-.84.47c-.24.04-.53.05-.86,0s-.67-.13-1.01-.28-.65-.31-.93-.51-.47-.45-.57-.76l-3.16-11.64Zm1.54-13.94c.19.99.38,1.93.58,2.79s.44,1.81.71,2.83l.18-.03s.13-.07.28-.18.5-.43,1.05-.97,1.41-1.38,2.56-2.52,2.76-2.75,4.84-4.83c.43-.37.85-.94,1.28-1.72s.81-1.61,1.14-2.5.58-1.75.75-2.58.21-1.51.12-2.03c-.07-.4-.3-.56-.68-.49l-.98.18c-.6.11-1.25.34-1.97.68s-1.55.91-2.49,1.7-2.04,1.88-3.28,3.27-2.67,3.19-4.27,5.43l.18.96Z"/><path class="cls-2" d="m122.5,47.46s0,0,0,0c-.2.13-.2.13,0,0Z"/><path class="cls-2" d="m142.11,69.63c-.92-.98-2.68-1.31-3.72-.27-2.94,2.95-5.89,5.91-8.83,8.86-.1-.33-.19-.67-.3-.98-.42-1.26-1.34-2.34-1.75-3.6-.8-2.48-1.08-5.14-1.81-7.65.06-.07.13-.14.19-.22.17-.18.33-.37.5-.55.34-.38.69-.75,1.04-1.12.7-.74,1.41-1.47,2.14-2.18,1.45-1.43,2.96-2.8,4.5-4.13,1.05-.9,1.24-2.69.27-3.72-.99-1.04-2.05-2.4-3.72-.27-1.87,2.37-4.46,4.05-6.54,6.22-.54-2.15-1.03-4.32-1.45-6.5,2.63-1.57,5.17-3.3,7.58-5.19,1.09-.85,1.22-2.72.27-3.72-1.02-1.08-2.56-1.18-3.72-.27-1.31,1.03-2.24,1.95-3.62,2.88-.06.04-.44.13-.59.19-.13.1-.3.19-.44.27-.23.15-.47.29-.7.44-1.4-1.86-5.15-.75-4.71,2.13.65,4.26,1.58,8.47,2.68,12.64-.32.86-.2,1.85.17,2.69.23.53.58.99.97,1.41.09.32.18.64.28.96.84,2.83,1.74,5.64,2.66,8.44.51,1.54,1.02,3.08,1.54,4.62.39,1.15.64,2.17,1.44,2.91.09.17.21.34.35.5.92.98,2.68,1.31,3.72.27,3.77-3.79,7.55-7.57,11.32-11.36.97-.98,1.3-2.63.27-3.72Z"/><path class="cls-2" d="m122.5,47.46s.03-.01.05-.02c.03-.02.05-.04.08-.06-.05.03-.09.06-.13.09Z"/><path class="cls-3" d="m21.07,60.35c0-.21-.05-.61-.13-1.19s-.15-1.19-.2-1.84-.11-1.26-.16-1.82-.09-.97-.11-1.22c-.25-1.86-.45-3.73-.59-5.6s-.44-3.71-.89-5.52l-.23-.91-1.09-.24c-.18-.04-.65-.2-1.4-.49s-1.6-.61-2.52-.98-1.84-.75-2.76-1.14-1.61-.72-2.11-.98c-.28-.1-.75-.32-1.41-.64s-1.35-.69-2.07-1.09-1.4-.79-2.05-1.16-1.1-.64-1.35-.79c-.4-.24-.8-.54-1.18-.89s-.64-.75-.75-1.19c-.17-.69-.03-1.24.42-1.68s.98-.72,1.58-.87c.4-.1.84-.15,1.31-.16s.9.11,1.31.35c1.95,1.31,4.09,2.58,6.4,3.8s4.61,2.19,6.88,2.91l.05-.85-1.52-16.95c-.03-.46.15-.81.55-1.03s.77-.38,1.13-.47c1.05-.26,1.91-.21,2.58.16s1.15,1.14,1.44,2.31l.03.12s0,.15-.02.32-.04.37-.05.59-.01.42,0,.61.01.31.02.35c0,.51.07,1.49.21,2.93s.33,3.15.57,5.12.5,4.14.78,6.51.58,4.74.87,7.13.57,4.69.82,6.92.46,4.2.63,5.91c.14.39.29.85.44,1.37s.2,1.04.16,1.56-.19.99-.46,1.4-.7.69-1.3.84c-.77.19-1.49.16-2.18-.1s-1.24-.72-1.66-1.38Z"/><path class="cls-3" d="m31.62,45.98c-.02-.25-.18-.9-.48-1.93s-.63-2.33-1-3.89-.75-3.27-1.15-5.14c-.4-1.87-.72-3.78-.97-5.73s-.38-3.85-.39-5.71.16-3.52.53-4.98c-.03-1.15.37-2.05,1.19-2.7s2.07-1.23,3.74-1.73c1.09-.27,2.09-.22,2.99.16s1.73.91,2.48,1.6,1.45,1.47,2.09,2.34,1.22,1.64,1.73,2.33l.08.3c.48.74.99,1.88,1.53,3.44s1.05,3.2,1.55,4.94.94,3.41,1.34,5.02l.92,3.69c.3,1.21.5,2.69.59,4.44s-.03,3.46-.36,5.13-.94,3.16-1.8,4.49-2.09,2.19-3.66,2.58c-1.33.33-2.59.28-3.79-.15s-2.28-1.09-3.25-1.98-1.79-1.92-2.47-3.08-1.15-2.3-1.43-3.43Zm6.87,2.59c.19.42.54.82,1.03,1.19s1.01.49,1.53.36l.48-.12c1.31-1.95,1.98-3.99,2.01-6.12s-.23-4.3-.78-6.51c-.13-.52-.35-1.32-.66-2.4s-.68-2.28-1.12-3.6-.92-2.71-1.45-4.16-1.08-2.8-1.65-4.05-1.13-2.32-1.69-3.21-1.11-1.46-1.64-1.71c-.03.05-.06.14-.09.28s-.04.22-.03.26c-.59,1.26-1,2.88-1.23,4.86s-.22,4.26.06,6.82.82,5.38,1.65,8.45,2.02,6.29,3.59,9.67Z"/><path class="cls-3" d="m68.74,39.07c-.23.96-.53,2.04-.9,3.24s-.84,2.38-1.43,3.53-1.28,2.17-2.07,3.05-1.72,1.46-2.81,1.73c-1.37.34-2.56.21-3.56-.4s-1.87-1.45-2.59-2.53-1.3-2.27-1.75-3.54-.8-2.44-1.06-3.49l-.39-1.57c-.04-.33-.11-.83-.21-1.49s-.2-1.42-.31-2.27-.23-1.74-.37-2.67-.27-1.82-.37-2.67-.21-1.61-.31-2.27-.17-1.16-.21-1.49c-.26-.36-.41-.76-.46-1.2s0-.86.14-1.25.36-.75.67-1.06.68-.52,1.13-.63c.12-.03.34-.04.66-.04s.66.05,1.03.13.69.18.97.3.45.26.49.42l.57,2.3c.52,4.49,1.02,8.05,1.5,10.67.48,2.62.92,4.64,1.31,6.06s.76,2.37,1.09,2.84.62.79.87.94c.53.08,1.02.01,1.46-.2s.9-.73,1.38-1.53,1.01-2,1.58-3.57,1.22-3.65,1.95-6.23c.05-.14.09-.39.11-.73s.04-.59.05-.72c-.74-2.64-1.42-5.32-2.03-8.03s-1.19-5.42-1.73-8.11c.06-.44.24-.83.55-1.16s.66-.55,1.06-.65c.16-.04.42-.04.77,0s.72.13,1.09.27.72.3,1.02.48.48.39.54.64l4.43,17.83c.73,1.74,1.41,3.51,2.02,5.31s1.29,3.56,2.02,5.31c.05.2.2.6.46,1.2s.53,1.25.84,1.94l.83,1.91c.25.58.42.94.5,1.1l.18.73c.36,1.45-.23,2.43-1.77,2.94-.67.25-1.31.1-1.94-.45s-1.22-1.32-1.76-2.32-1.08-2.14-1.59-3.42-.98-2.54-1.41-3.76-.84-2.33-1.21-3.33-.72-1.69-1.03-2.09Z"/><path class="cls-1" d="m101.76,28.26c-.02.09-.07.35-.17.76s-.17.69-.22.84c-.19.55-.29,1.32-.28,2.31s-.04,1.98-.15,2.98-.3,1.91-.59,2.74-.78,1.35-1.49,1.56c-.25.07-.56.11-.94.12s-.75-.04-1.09-.14-.66-.25-.95-.46-.47-.45-.56-.74c-.17-.58-.19-1.11-.05-1.61s.13-1.01-.03-1.54l1.47-9.22c.02-.09.02-.25.02-.48s0-.38.02-.48l-.06-.19-.02-.06c-1.17-.91-2.36-1.89-3.56-2.94s-2.29-2.04-3.29-2.96-1.86-1.72-2.59-2.42-1.23-1.19-1.49-1.47c-.45-.31-.75-.7-.89-1.15s-.15-.89-.02-1.31.35-.8.7-1.16.76-.6,1.26-.75c.7-.21,1.3-.26,1.78-.13s.96.43,1.43.92c1.15,1.27,2.28,2.48,3.4,3.63s2.33,2.27,3.65,3.35l.06-.02c.16-.36.27-.87.32-1.51s.04-1.57-.02-2.76-.16-2.72-.27-4.58-.23-4.19-.36-6.98c-.03-.4.12-.84.45-1.32s.66-.77.99-.87l.25-.07c.61-.05,1.1-.1,1.45-.13s.63,0,.84.08.39.3.56.61.36.77.59,1.38c.15.63.26,1.5.35,2.6s.16,2.32.22,3.65.11,2.71.14,4.15.03,2.77,0,4.02-.06,2.35-.08,3.3-.07,1.62-.14,2l.17.56,15.64,8.37c.32.17.55.36.68.57s.24.46.33.75c.2.66.16,1.25-.11,1.76s-.72.86-1.34,1.05c-.58.17-1.23.2-1.97.09s-1.4-.33-1.99-.65l-11.52-6.17-.5.15Z"/></g></svg>