<svg width="96" height="120" viewBox="0 0 96 120" fill="none" xmlns="http://www.w3.org/2000/svg">
<rect width="96" height="119.87" rx="8" fill="#B88E2F"/>
<path opacity="0.8" fill-rule="evenodd" clip-rule="evenodd" d="M16.5814 57.2054C18.3956 59.0092 18.3956 61.9338 16.5813 63.7376L16.4884 63.83C14.6741 65.6338 11.7326 65.6337 9.9183 63.8299C8.10403 62.0261 8.10406 59.1015 9.91836 57.2977L10.0113 57.2054C11.8256 55.4016 14.7671 55.4016 16.5814 57.2054Z" fill="white"/>
<path opacity="0.9" fill-rule="evenodd" clip-rule="evenodd" d="M38.4224 58.5961C40.2334 60.4031 40.2281 63.3277 38.4106 65.1282L25.5418 77.8765C23.7242 79.677 20.7827 79.6718 18.9717 77.8647C17.1607 76.0576 17.166 73.1331 18.9836 71.3325L31.8524 58.5843C33.6699 56.7837 36.6114 56.789 38.4224 58.5961Z" fill="white"/>
<path opacity="0.8" fill-rule="evenodd" clip-rule="evenodd" d="M55.8884 80.5422C57.3117 78.4196 60.1961 77.8461 62.3309 79.2611L62.6097 79.4459C64.7445 80.8609 65.3214 83.7286 63.8982 85.8512C62.4749 87.9737 59.5905 88.5472 57.4557 87.1322L57.1769 86.9475C55.0421 85.5325 54.4652 82.6647 55.8884 80.5422Z" fill="white"/>
<path opacity="0.9" fill-rule="evenodd" clip-rule="evenodd" d="M86.5464 56.9285C88.3607 58.7323 88.3607 61.6569 86.5464 63.4607L80.2282 69.7425C78.4139 71.5463 75.4724 71.5463 73.6581 69.7425C71.8438 67.9386 71.8438 65.0141 73.6581 63.2103L79.9763 56.9285C81.7906 55.1247 84.7321 55.1247 86.5464 56.9285Z" fill="white"/>
<path fill-rule="evenodd" clip-rule="evenodd" d="M86.6393 33.6951C88.4535 35.4989 88.4535 38.4235 86.6393 40.2273L39.9494 86.6476C38.1351 88.4514 35.1935 88.4514 33.3793 86.6476C31.565 84.8438 31.565 81.9193 33.3793 80.1155L80.0692 33.6951C81.8835 31.8913 84.825 31.8913 86.6393 33.6951Z" fill="white"/>
<path fill-rule="evenodd" clip-rule="evenodd" d="M77.8121 19.4222C79.6264 21.226 79.6264 24.1506 77.8121 25.9544L50.9596 52.6518C49.1453 54.4556 46.2038 54.4556 44.3895 52.6518C42.5752 50.848 42.5752 47.9235 44.3895 46.1197L71.242 19.4222C73.0563 17.6184 75.9978 17.6184 77.8121 19.4222Z" fill="white"/>
<path fill-rule="evenodd" clip-rule="evenodd" d="M63.6404 10.3673C65.456 12.1699 65.4579 15.0944 63.6449 16.8994L29.1269 51.2643C27.3138 53.0693 24.3723 53.0713 22.5568 51.2687C20.7413 49.4661 20.7393 46.5416 22.5524 44.7366L57.0704 10.3717C58.8834 8.56663 61.8249 8.56467 63.6404 10.3673Z" fill="white"/>
<path opacity="0.9" fill-rule="evenodd" clip-rule="evenodd" d="M29.4556 21.3678C31.2668 23.1747 31.2617 26.0992 29.4443 27.8999L15.9251 41.2948C14.1077 43.0955 11.1662 43.0905 9.35506 41.2836C7.54391 39.4767 7.54897 36.5521 9.36637 34.7514L22.8855 21.3565C24.7029 19.5558 27.6445 19.5608 29.4556 21.3678Z" fill="white"/>
<path opacity="0.8" fill-rule="evenodd" clip-rule="evenodd" d="M37.7327 8C40.2985 8 42.3784 10.068 42.3784 12.6189V13.0808C42.3784 15.6318 40.2985 17.6998 37.7327 17.6998C35.1669 17.6998 33.0869 15.6318 33.0869 13.0808V12.6189C33.0869 10.068 35.1669 8 37.7327 8Z" fill="white"/>
<path d="M8 111.696H11.2782V96.4993H8V111.696Z" fill="#F8F4EA"/>
<path d="M12.7164 111.696H15.7558V105.704C15.7558 104.293 16.6893 103.273 18.0136 103.273C19.2728 103.273 20.1195 104.228 20.1195 105.552V111.696H23.1588V104.879C23.1588 102.361 21.5523 100.581 19.0774 100.581C17.5794 100.581 16.3637 101.21 15.7558 102.274V100.754H12.7164V111.696Z" fill="#F8F4EA"/>
<path d="M25.3598 97.5197V100.754H23.254V103.273H25.3598V107.723C25.3598 110.263 26.988 111.696 29.5064 111.696H31.3083V109.156H29.9188C28.9419 109.156 28.3775 108.657 28.3775 107.593V103.273H31.3083V100.754H28.3775V97.5197H25.3598Z" fill="#F8F4EA"/>
<path d="M38.9777 107.984C38.7389 108.917 37.9357 109.395 36.7199 109.395C35.2002 109.395 34.2233 108.44 34.0062 106.898H41.8651C41.8868 106.659 41.9086 106.334 41.9086 105.921C41.9086 103.425 40.3672 100.581 36.5028 100.581C32.7905 100.581 31.0971 103.425 31.0971 106.204C31.0971 108.961 33.0076 111.87 36.7199 111.87C39.4119 111.87 41.4961 110.35 41.9303 107.984H38.9777ZM36.5028 102.795C37.9574 102.795 38.8041 103.772 38.8909 104.988H34.0496C34.3102 103.468 35.1351 102.795 36.5028 102.795Z" fill="#F8F4EA"/>
<path d="M49.5032 103.273V100.754H48.2658C46.9415 100.754 46.1165 101.21 45.5303 102.578V100.754H42.491V111.696H45.5303V106.377C45.5303 104.51 46.2033 103.273 47.7013 103.273H49.5032Z" fill="#F8F4EA"/>
<path d="M49.9959 111.696H53.0136V96H49.9959V111.696Z" fill="#F8F4EA"/>
<path d="M59.5229 111.87C62.888 111.87 65.2977 109.482 65.2977 106.225C65.2977 102.969 62.888 100.581 59.5229 100.581C56.1579 100.581 53.7482 102.969 53.7482 106.225C53.7482 109.482 56.1579 111.87 59.5229 111.87ZM59.5229 109.265C57.8947 109.265 56.7875 108.027 56.7875 106.225C56.7875 104.402 57.8947 103.164 59.5229 103.164C61.1512 103.164 62.2584 104.402 62.2584 106.225C62.2584 108.027 61.1512 109.265 59.5229 109.265Z" fill="#F8F4EA"/>
<path d="M70.9429 111.87C73.7869 111.87 76.0447 110.046 76.3704 107.615H73.2876C73.0705 108.592 72.1804 109.265 71.0732 109.265C69.4233 109.265 68.4463 108.005 68.4463 106.225C68.4463 104.445 69.4015 103.164 71.0298 103.164C72.137 103.164 73.0705 103.881 73.2442 104.858H76.2835C76.0881 102.318 73.8086 100.581 70.9429 100.581C67.5562 100.581 65.2984 103.034 65.2984 106.225C65.2984 109.417 67.5562 111.87 70.9429 111.87Z" fill="#F8F4EA"/>
<path d="M84.3528 111.696H88L83.289 105.053L87.6526 100.754H83.8317L80.0325 104.489V96H76.9932V111.696H80.0325V108.266L81.2483 107.072L84.3528 111.696Z" fill="#F8F4EA"/>
</svg>
