<svg width="154" height="32" viewBox="0 0 154 32" fill="none" xmlns="http://www.w3.org/2000/svg">
<path d="M7.1 19.72H8.09V22.096L10.114 24.12H17.198L7.32 12.482V9.446L9.366 7.4H18.012L19.552 8.94V7.18H20.542V12.68H19.552V10.304L17.528 8.28H11.104L20.982 19.918V22.954L18.936 25H9.63L8.09 23.46V25.22H7.1V19.72ZM30.3418 16.2V12.68H28.0318V24.12H32.2118L33.9498 22.382L34.6318 23.064L32.6958 25H25.0178L22.9718 22.954V13.846L25.0178 11.8H33.1358L34.7418 13.406V16.2H30.3418ZM52.2421 24.12V25H47.4681L45.4221 22.954V12.68H43.6621L42.2321 14.11V24.12H43.5521V25H39.2181L37.1721 22.954V6.52H35.4121V5.64H40.1861L42.2321 7.686V12.746L43.1781 11.8H48.4361L50.4821 13.846V24.12H52.2421ZM69.5207 24.12V25H64.7467L63.2067 23.438L61.6447 25H56.7167L54.6707 22.954V12.68H52.9107V11.8H57.5747L59.6207 13.846V24.12H61.1607L62.7007 22.58V11.8H65.7147L67.7607 13.846V24.12H69.5207ZM86.789 24.12V25H82.015L79.969 22.954V12.68H78.209L76.779 14.11V24.12H78.099V25H73.765L71.719 22.954V6.52H69.959V5.64H74.733L76.779 7.686V12.746L77.725 11.8H82.983L85.029 13.846V24.12H86.789ZM113.792 8.28H112.34L107.852 25H102.594L100.504 17.256L98.4356 25H93.1776L88.6896 8.28H87.2376V7.4H104.992V8.28H103.364L107.324 23.042L111.284 8.28H108.886V7.4H113.792V8.28ZM99.9976 15.32L98.1056 8.28H93.9476L97.9076 23.042L99.9976 15.32ZM117.148 25L115.102 22.954V13.846L117.148 11.8H125.596L127.642 13.846V17.454L125.596 19.5H120.162V24.12H125.222L127.07 22.272L127.752 22.954L125.706 25H117.148ZM120.162 12.68V18.62H122.582V12.68H120.162ZM136.665 24.12V25H132.111L130.065 22.954V6.52H128.525V5.64H133.079L135.125 7.686V24.12H136.665ZM147.328 22.954L145.282 25H140.904L138.858 22.954V8.94H137.318V8.06H141.762L143.588 9.886V13.12H146.668V14H143.588V24.12H144.798L146.646 22.272L147.328 22.954Z" fill="white"/>
</svg>
