<svg width="3352" height="1024" viewBox="0 0 3352 1024" fill="none" xmlns="http://www.w3.org/2000/svg">
<path d="M3054.01 300.585C3054.01 300.585 1069.9 300.585 1013.95 300.585C1012.7 299.621 1011.57 298.454 1010.37 297.524C1010.06 297.237 710.237 66.9111 701.224 59.9443C700.7 59.5554 700.193 59.1662 700.193 59.1662C652.153 22.3878 580.794 21.6099 530.217 57.0525C498.579 79.1871 479.573 112.668 478.153 148.888C478.119 150.326 478.034 151.78 478.034 153.252C478.034 172.038 483.023 190.182 492.036 206.483C399.202 206.567 305.827 206.669 305.827 206.669C236.193 206.72 173.221 253.694 158.848 315.938C156.802 324.867 155.771 333.863 155.771 342.791C155.771 368.832 164.429 394.078 180.814 414.809C199.262 437.992 225.878 453.6 256.248 459.687C168.538 527.038 80.8951 594.287 80.8105 594.372C80.1849 594.828 79.6775 595.251 79.2379 595.539C44.0659 622.56 20.8995 661.689 15.6576 702.881C14.8797 708.918 14.5078 714.904 14.5078 720.839C14.5078 750.498 23.9771 778.704 41.9351 801.751C63.7992 829.72 96.0629 847.475 132.808 851.651C174.912 856.521 219.216 843.028 254.269 814.687C254.489 814.518 297.896 778.923 343.671 741.486C360.462 782.018 384.017 819.591 414.454 853.19C453.617 896.462 501.217 930.653 555.852 954.834C613.277 980.283 674.811 993.134 738.764 992.982C802.766 992.863 864.267 979.86 921.608 954.259C976.361 929.757 1023.86 895.447 1062.87 852.243C1068.6 845.851 1073.88 839.121 1079.15 832.358C1156.6 832.358 3054.01 832.358 3054.01 832.358C3210.02 832.358 3336.79 713.094 3336.79 566.505C3336.79 419.882 3210.02 300.585 3054.01 300.585Z" fill="white"/>
<path d="M612.556 554.468C614.348 522.492 630.006 494.32 653.629 474.35C676.795 454.735 707.977 442.746 741.999 442.746C775.987 442.746 807.168 454.735 830.352 474.35C853.957 494.32 869.615 522.491 871.425 554.434C873.217 587.289 860.011 617.811 836.845 640.436C813.222 663.45 779.623 677.891 741.999 677.891C704.375 677.891 670.708 663.45 647.102 640.436C623.919 617.811 610.746 587.289 612.556 554.468Z" fill="#265787"/>
<path d="M406.416 619.075C406.635 631.589 410.626 655.905 416.612 674.894C429.193 715.089 450.533 752.272 480.226 785.043C510.697 818.727 548.22 845.782 591.559 864.992C637.114 885.165 686.473 895.446 737.743 895.362C788.928 895.294 838.287 884.81 883.842 864.484C927.181 845.089 964.669 817.916 995.09 784.215C1024.77 751.309 1046.07 714.057 1058.69 673.863C1065.03 653.554 1069.04 632.942 1070.64 612.261C1072.21 591.885 1071.56 571.475 1068.66 551.082C1063.02 511.344 1049.27 474.059 1028.1 440.07C1008.74 408.838 983.778 381.496 954.101 358.482L954.169 358.431L654.682 128.477C654.412 128.274 654.192 128.055 653.905 127.869C634.256 112.786 601.214 112.836 579.604 127.954C557.757 143.24 555.254 168.519 574.7 184.465L574.615 184.55L699.527 286.125L318.807 286.532C318.621 286.532 318.435 286.532 318.3 286.532C286.831 286.565 256.58 307.212 250.594 333.303C244.438 359.885 265.812 381.935 298.532 382.054L298.482 382.172L491.454 381.8L147.106 646.114C146.667 646.435 146.193 646.774 145.788 647.095C113.304 671.969 102.803 713.33 123.264 739.506C144.029 766.121 188.18 766.172 221.002 739.658L408.935 585.848C408.935 585.848 406.196 606.613 406.416 619.075ZM889.337 688.608C850.614 728.058 796.402 750.43 737.743 750.548C678.999 750.649 624.786 728.481 586.063 689.098C567.141 669.906 553.242 647.822 544.669 624.301C536.264 601.185 533.001 576.649 535.165 551.894C537.211 527.696 544.415 504.614 555.914 483.731C567.209 463.203 582.766 444.653 601.975 428.961C639.616 398.287 687.538 381.682 737.658 381.614C787.829 381.546 835.717 398 873.392 428.572C892.567 444.197 908.107 462.679 919.403 483.173C930.952 504.04 938.105 527.037 940.235 551.302C942.366 576.024 939.102 600.526 930.698 623.658C922.108 647.247 908.259 669.331 889.337 688.608Z" fill="#E87D0D"/>
<path d="M2664.31 553.942C2667.2 521.679 2692.14 501.218 2730.24 501.218C2768.39 501.218 2793.31 521.679 2796.2 553.942H2664.31ZM2792.3 633.603C2782.54 657.514 2759.54 671.667 2728.31 671.667C2689.2 671.667 2662.87 647.249 2661.81 608.679H2886.65C2886.65 604.671 2886.65 601.323 2886.65 597.333C2886.65 500.711 2829.94 446.414 2728.31 446.414C2629.63 446.414 2569.95 501.218 2569.95 587.17C2569.95 673.645 2630.56 728.365 2728.31 728.365C2786.97 728.365 2832.46 708.26 2860.49 672.918L2792.3 633.603Z" fill="#265787"/>
<path d="M1666.65 554.096C1669.63 521.832 1694.57 501.371 1732.7 501.371C1770.78 501.371 1795.71 521.832 1798.63 554.096H1666.65ZM1794.73 633.757C1784.95 657.734 1761.97 671.888 1730.67 671.888C1691.63 671.888 1665.23 647.403 1664.2 608.815H1889C1889 604.858 1889 601.527 1889 597.536C1889 500.864 1832.3 446.551 1730.67 446.551C1631.94 446.551 1572.38 501.371 1572.38 587.323C1572.38 673.799 1632.95 728.518 1730.67 728.518C1789.32 728.518 1834.84 708.48 1862.92 673.088L1794.73 633.757Z" fill="#265787"/>
<path d="M1552.25 387.992H1471.16V719.708H1552.25V387.992Z" fill="#265787"/>
<path d="M1909.19 476.121H1990.73V495.871C2019.59 465.062 2054.25 449.488 2093.35 449.488C2138.38 449.488 2172.47 465.062 2190.07 491.576C2204.77 513.474 2205.73 539.904 2205.73 574.636V719.704H2124.08V592.239C2124.08 539.346 2113.44 514.928 2067.01 514.928C2020.08 514.928 1990.73 542.88 1990.73 589.804V719.704H1909.19V476.121Z" fill="#265787"/>
<path d="M2468.32 591.28C2468.32 636.682 2437.98 666.459 2391.04 666.459C2344.06 666.459 2313.73 637.697 2313.73 591.804C2313.73 545.235 2343.66 516.488 2391.04 516.488C2437.98 516.488 2468.32 545.742 2468.32 591.28ZM2468.32 487.167C2447.7 465.066 2417.87 452.942 2376.41 452.942C2286.96 452.942 2225.88 508.101 2225.88 590.772C2225.88 671.82 2286.54 728.518 2374.94 728.518C2415.47 728.518 2445.23 718.271 2468.32 695.291V719.708H2549.9V366.957L2468.32 387.992V487.167Z" fill="#265787"/>
<path d="M1285.83 516.488C1333.25 516.488 1363.06 545.235 1363.06 591.804C1363.06 637.697 1332.77 666.459 1285.83 666.459C1238.92 666.459 1208.62 636.682 1208.62 591.28C1208.62 545.742 1238.92 516.488 1285.83 516.488ZM1208.62 387.992L1127 366.957V719.708H1208.62V695.291C1231.59 718.271 1261.4 728.518 1301.96 728.518C1390.42 728.518 1450.99 671.82 1450.99 590.772C1450.99 508.101 1389.89 452.942 1300.49 452.942C1258.95 452.942 1229.13 465.066 1208.62 487.167V387.992Z" fill="#265787"/>
<path d="M2906.77 719.705V476.122H2988.36V491.172C3012.8 461.749 3038.65 447.105 3068.06 447.105C3073.89 447.105 3081.23 448.053 3090.99 449.016V518.464C3083.12 517.432 3074.36 517.432 3065.06 517.432C3017.63 517.432 2988.36 548.715 2988.36 601.913V719.705H2906.77Z" fill="#265787"/>
<path d="M3139.79 403.72V391.57H3145.73C3146.5 391.57 3147.2 391.729 3147.84 392.048C3148.49 392.366 3149 392.827 3149.37 393.431C3149.76 394.023 3149.95 394.748 3149.95 395.604C3149.95 396.46 3149.75 397.19 3149.36 397.793C3148.96 398.397 3148.43 398.858 3147.78 399.176C3147.12 399.484 3146.39 399.637 3145.59 399.637H3141.52V397.349H3144.93C3145.39 397.349 3145.78 397.201 3146.11 396.904C3146.45 396.608 3146.62 396.169 3146.62 395.587C3146.62 394.984 3146.45 394.556 3146.11 394.303C3145.78 394.04 3145.39 393.908 3144.94 393.908H3142.95V403.72H3139.79ZM3147.55 398.106L3150.31 403.72H3146.85L3144.27 398.106H3147.55ZM3144.55 410.964C3142.73 410.964 3141.02 410.624 3139.43 409.943C3137.84 409.263 3136.44 408.319 3135.23 407.112C3134.02 405.904 3133.08 404.505 3132.4 402.914C3131.72 401.322 3131.38 399.615 3131.38 397.793C3131.38 395.972 3131.72 394.265 3132.4 392.673C3133.08 391.082 3134.02 389.683 3135.23 388.475C3136.44 387.268 3137.84 386.324 3139.43 385.644C3141.02 384.963 3142.73 384.623 3144.55 384.623C3146.37 384.623 3148.08 384.963 3149.67 385.644C3151.26 386.324 3152.66 387.268 3153.87 388.475C3155.07 389.683 3156.02 391.082 3156.7 392.673C3157.38 394.265 3157.72 395.972 3157.72 397.793C3157.72 399.615 3157.38 401.322 3156.7 402.914C3156.02 404.505 3155.07 405.904 3153.87 407.112C3152.66 408.319 3151.26 409.263 3149.67 409.943C3148.08 410.624 3146.37 410.964 3144.55 410.964ZM3144.55 407.49C3146.35 407.49 3147.98 407.057 3149.44 406.19C3150.91 405.312 3152.08 404.143 3152.95 402.683C3153.81 401.212 3154.25 399.583 3154.25 397.793C3154.25 396.004 3153.81 394.38 3152.93 392.92C3152.06 391.45 3150.89 390.281 3149.42 389.414C3147.96 388.536 3146.34 388.097 3144.55 388.097C3142.77 388.097 3141.15 388.536 3139.68 389.414C3138.2 390.281 3137.04 391.45 3136.17 392.92C3135.3 394.38 3134.87 396.004 3134.87 397.793C3134.87 399.583 3135.3 401.212 3136.17 402.683C3137.04 404.143 3138.2 405.312 3139.68 406.19C3141.15 407.057 3142.77 407.49 3144.55 407.49Z" fill="#265787"/>
</svg>
