<svg width="32" height="32" viewBox="0 0 32 32" fill="none" xmlns="http://www.w3.org/2000/svg">
<g clip-path="url(#clip0_276_7)">
<path d="M30 18V16H24V26H26V22H29V20H26V18H30Z" fill="white"/>
<path d="M19 26H15V16H19C19.7954 16.0009 20.5579 16.3172 21.1204 16.8796C21.6828 17.4421 21.9991 18.2046 22 19V23C21.9991 23.7954 21.6828 24.5579 21.1204 25.1204C20.5579 25.6828 19.7954 25.9991 19 26ZM17 24H19C19.2651 23.9997 19.5193 23.8943 19.7068 23.7068C19.8943 23.5193 19.9997 23.2651 20 23V19C19.9997 18.7349 19.8943 18.4807 19.7068 18.2932C19.5193 18.1057 19.2651 18.0003 19 18H17V24Z" fill="white"/>
<path d="M11 16H6V26H8V23H11C11.5302 22.9993 12.0385 22.7883 12.4134 22.4134C12.7883 22.0385 12.9993 21.5302 13 21V18C12.9994 17.4698 12.7885 16.9614 12.4135 16.5865C12.0386 16.2115 11.5302 16.0006 11 16ZM8 21V18H11L11.001 21H8Z" fill="white"/>
<path d="M22 14.0001V10.0001C22.0036 9.86867 21.9786 9.73802 21.9268 9.61717C21.875 9.49633 21.7976 9.38815 21.7 9.3001L14.7 2.3001C14.612 2.20243 14.5038 2.12502 14.3829 2.07323C14.2621 2.02143 14.1314 1.99648 14 2.0001H4C3.47005 2.00166 2.96224 2.21287 2.58751 2.58761C2.21277 2.96234 2.00156 3.47015 2 4.0001V28.0001C2 28.5305 2.21071 29.0392 2.58579 29.4143C2.96086 29.7894 3.46957 30.0001 4 30.0001H20V28.0001H4V4.0001H12V10.0001C12.0016 10.5301 12.2128 11.0379 12.5875 11.4126C12.9622 11.7873 13.47 11.9985 14 12.0001H20V14.0001H22ZM14 10.0001V4.4001L19.6 10.0001H14Z" fill="white"/>
</g>
<defs>
<clipPath id="clip0_276_7">
<rect width="32" height="32" fill="white"/>
</clipPath>
</defs>
</svg>
