<svg width="1024" height="1024" viewBox="0 0 1024 1024" fill="none" xmlns="http://www.w3.org/2000/svg">
<path d="M385.024 706.368V406.72H285.376V706.4H384.992L385.024 706.368ZM335.2 365.76C369.92 365.76 391.584 342.72 391.584 313.952C390.944 284.576 369.92 262.208 335.904 262.208C301.76 262.208 279.52 284.608 279.52 313.952C279.52 342.752 301.152 365.792 334.592 365.792L335.2 365.76ZM744.224 706.368V534.56C744.224 442.496 695.072 399.648 629.568 399.648C576.64 399.648 552.96 428.768 539.776 449.152V406.656H440.16C441.472 434.816 440.16 706.368 440.16 706.368H539.776V539.008C539.776 530.048 540.416 521.088 543.04 514.752C550.208 496.832 566.624 478.304 594.112 478.304C630.176 478.304 644.672 505.76 644.672 546.048V706.4H744.256L744.224 706.368ZM512 64C759.424 64 960 264.544 960 512C960 759.424 759.424 960 512 960C264.544 960 64 759.424 64 512C64 264.544 264.544 64 512 64Z" fill="white"/>
</svg>
